<?xml version="1.0" standalone="no"?>
<!DOCTYPE svg PUBLIC "-//W3C//DTD SVG 20010904//EN"
 "http://www.w3.org/TR/2001/REC-SVG-20010904/DTD/svg10.dtd">
<svg version="1.0" xmlns="http://www.w3.org/2000/svg"
 width="280.000000pt" height="280.000000pt" viewBox="0 0 280.000000 280.000000"
 preserveAspectRatio="xMidYMid meet">
<metadata>
Created by potrace 1.11, written by Peter Selinger 2001-2013
</metadata>
<g transform="translate(0.000000,280.000000) scale(0.100000,-0.100000)"
fill="#000000" stroke="none">
<path d="M687 2786 c-3 -7 -80 -133 -171 -280 l-166 -266 0 -1058 0 -1058 28
-27 c38 -37 125 -74 205 -87 65 -12 209 -9 272 5 49 10 138 54 168 82 l27 27
0 514 0 513 78 -62 c42 -35 79 -66 82 -69 3 -3 52 -44 110 -90 58 -46 107 -87
110 -90 3 -3 97 -82 210 -174 113 -93 225 -185 250 -206 53 -44 226 -187 289
-239 63 -51 233 -192 253 -209 17 -14 18 5 18 394 l0 409 -127 100 c-71 55
-137 107 -148 117 -42 35 -421 334 -443 350 l-23 16 43 33 c24 18 45 36 48 39
3 3 91 73 195 155 105 82 192 152 195 155 3 3 23 18 45 35 22 16 45 34 51 40
6 5 45 37 87 70 l77 60 0 409 c0 389 -1 408 -17 394 -10 -8 -29 -24 -43 -36
-14 -11 -59 -48 -100 -82 -41 -34 -93 -77 -115 -95 -22 -18 -98 -81 -170 -140
-71 -59 -148 -122 -170 -140 -22 -19 -119 -98 -215 -178 -96 -79 -263 -217
-370 -305 l-195 -160 -3 294 -2 295 -51 82 c-28 45 -61 98 -73 117 -13 19 -41
64 -63 100 -167 270 -167 270 -176 246z m222 -481 c53 -83 61 -101 61 -144 0
-45 -3 -51 -33 -69 -132 -77 -361 -74 -475 7 -25 17 -28 25 -27 68 2 39 12 65
55 136 l54 89 55 -8 c88 -12 212 -5 248 15 0 1 28 -42 62 -94z"/>
</g>
</svg>
