<?xml version="1.0" encoding="utf-8"?>
<!-- Generator: Adobe Illustrator 25.2.3, SVG Export Plug-In . SVG Version: 6.00 Build 0)  -->
<svg version="1.1" id="Layer_1" xmlns="http://www.w3.org/2000/svg" xmlns:xlink="http://www.w3.org/1999/xlink" x="0px" y="0px"
	 viewBox="0 0 40 40" style="enable-background:new 0 0 40 40;" xml:space="preserve">
<style type="text/css">
	.st0{fill:#010202;}
</style>
<g>
	<path class="st0" d="M9,40c3.9,0,5-2,5-2V8L9,0L4,8v30C4,38,5.1,40,9,40z M5,8l1-2c0.6,0.2,1,1,3,1s2.4-0.8,3-1l1,2v2
		c0,0-1.3,1-4,1c-2.7,0-4-1-4-1V8z"/>
	<path d="M16,24v-7L36,0v12l-11,8l11,8v12L16,24z"/>
</g>
</svg>
