<?xml version="1.0" encoding="utf-8"?>
<svg version="1.1" id="Layer_1" xmlns="http://www.w3.org/2000/svg" xmlns:xlink="http://www.w3.org/1999/xlink" x="0px" y="0px"
	 viewBox="0 0 50 50" style="enable-background:new 0 0 50 50;" xml:space="preserve">
<g>
	<path style="fill:#ffffff;" class="st0" d="M11,50c4.9,0,6-2,6-2V10L11,0L5,10v38C5,48,6.1,50,11,50z M6,10l2-2c0.8,0.2,2,1,3,1s2.2-0.8,3-1l2,2v3
		c0,0-1.6,1-5,1c-3.4,0-5-1-5-1V10z"/>
	<path style="fill:#ffffff;" d="M20,30v-8.8L45,0v15L31.2,25L45,35v15L20,30z"/>
</g>
</svg>
